<svg width="854" height="150" viewBox="0 0 854 150" fill="none" xmlns="http://www.w3.org/2000/svg">
<path d="M240.23 36.0601H300.29V52.01H258.93V69.83H293.47V85.1201H258.93V117.9H240.23V36.0601Z" fill="white"/>
<path d="M309.31 36.0601H326.8V51.13H309.31V36.0601ZM309.42 59.38H326.69V117.9H309.42V59.38Z" fill="white"/>
<path d="M338.35 36.0601H355.73V117.9H338.35V36.0601Z" fill="white"/>
<path d="M367.28 59.38H383.89V68.51H384.22C387.96 61.58 393.57 57.73 401.82 57.73C409.52 57.73 414.91 61.58 417.88 68.84H418.1C422.94 61.03 429.32 57.73 436.69 57.73C449.67 57.73 456.38 66.31 456.38 79.29V117.9H439.22V82.15C439.22 75.77 436.14 71.92 430.53 71.92C424.37 71.92 420.52 77.09 420.52 84.57V117.9H403.25V82.15C403.25 75.77 400.39 71.92 394.67 71.92C388.62 71.92 384.55 77.09 384.55 84.57V117.9H367.28V59.38Z" fill="white"/>
<path d="M467.38 59.38H483.99V68.51H484.32C488.06 61.58 493.67 57.73 501.92 57.73C509.62 57.73 515.01 61.58 517.98 68.84H518.2C523.04 61.03 529.42 57.73 536.79 57.73C549.77 57.73 556.48 66.31 556.48 79.29V117.9H539.32V82.15C539.32 75.77 536.24 71.92 530.63 71.92C524.47 71.92 520.62 77.09 520.62 84.57V117.9H503.35V82.15C503.35 75.77 500.49 71.92 494.77 71.92C488.72 71.92 484.65 77.09 484.65 84.57V117.9H467.38V59.38Z" fill="white"/>
<path d="M603.01 110.75H602.79C598.94 116.14 594.1 119.44 585.08 119.44C573.53 119.44 565.06 113.28 565.06 101.73C565.06 88.75 575.29 85.45 588.05 83.91C598.5 82.48 602.79 80.83 602.79 76.43C602.79 72.03 600.04 69.39 594.1 69.39C587.5 69.39 584.31 72.47 583.87 77.09H567.92C568.36 67.08 576.5 57.73 593.88 57.73C601.36 57.73 606.64 58.83 610.71 61.25C616.76 64.77 619.62 70.82 619.62 78.74V108.77C619.62 113.39 620.28 115.92 621.82 116.91V117.9H604.99C604.11 116.58 603.34 114.05 603.01 110.75ZM603.23 96.89V89.3C600.7 90.84 596.96 91.72 593.11 92.6C585.52 94.25 581.89 96.12 581.89 101.18C581.89 106.24 585.74 108.11 590.47 108.11C598.17 108.11 603.23 103.27 603.23 96.89Z" fill="white"/>
<path d="M654.15 92.38L648.32 98.4301V117.9H631.27V36.0601H648.32V61.58C648.32 70.16 647.99 76.65 647.77 80.39L667.02 59.38H687.04L666.14 81.05L689.46 117.9H669.44L654.15 92.38Z" fill="white"/>
<path d="M689.02 88.75C689.02 71.15 701.23 57.73 719.05 57.73C727.41 57.73 734.01 60.48 739.18 65.21C745.78 71.59 748.75 81.49 748.64 93.04H705.96C707.06 101.84 711.79 107.12 720.15 107.12C725.54 107.12 728.95 105.03 730.82 101.4H747.54C744.57 111.74 735 119.66 719.93 119.66C700.79 119.66 689.02 106.24 689.02 88.75ZM706.07 83.03H731.04C730.49 74.89 725.87 69.94 719.05 69.94C711.13 69.94 707.17 75 706.07 83.03Z" fill="white"/>
<path d="M773.94 69.83H774.27C778.01 61.69 783.29 58.39 790.55 58.39C792.2 58.39 793.41 58.5 794.18 58.83V73.9H793.74C792.53 73.68 791.32 73.57 790.11 73.57C780.76 73.46 774.6 79.29 774.6 90.73V117.9H757.33V59.38H773.94V69.83Z" fill="white"/>
<path d="M798.69 99.86H814.97C815.96 105.36 820.14 108.44 826.85 108.44C833.01 108.44 836.53 105.91 836.53 101.73C836.53 96.45 829.6 95.79 821.46 94.25C811.01 92.27 800.45 89.63 800.45 75.99C800.45 64 811.34 57.73 825.09 57.73C841.37 57.73 849.51 64.77 851.05 75H834.99C833.89 70.82 830.59 68.73 825.09 68.73C819.59 68.73 816.4 70.93 816.4 74.67C816.4 79.07 822.78 79.73 830.81 81.16C841.26 83.03 853.14 85.78 853.14 100.52C853.14 113.17 841.92 119.77 826.74 119.77C809.8 119.77 799.57 111.63 798.69 99.86Z" fill="white"/>
<path d="M190 75C190 116.42 156.42 150 115 150C73.58 150 40 116.42 40 75C40 33.58 73.58 0 115 0C156.42 0 190 33.58 190 75Z" fill="#A532FF"/>
<path d="M180 75C180 116.42 146.42 150 105 150C63.58 150 30 116.42 30 75C30 33.58 63.58 0 105 0C146.42 0 180 33.58 180 75Z" fill="#00CCE5"/>
<path d="M150 75C150 116.42 116.42 150 75 150C33.58 150 0 116.42 0 75C0 33.58 33.58 0 75 0C116.42 0 150 33.58 150 75Z" fill="#FE5C53"/>
<path d="M160 75C160 116.42 126.42 150 85 150C43.58 150 10 116.42 10 75C10 33.58 43.58 0 85 0C126.42 0 160 33.58 160 75Z" fill="#FFD264"/>
<path d="M169.99 75C169.99 116.42 136.41 150 94.99 150C53.57 150 19.99 116.42 19.99 75C19.99 33.58 53.57 0 94.99 0C136.41 0 169.99 33.58 169.99 75Z" fill="white"/>
<path d="M117.99 75C117.99 87.7 107.69 98 94.99 98C82.29 98 71.99 87.7 71.99 75C71.99 62.3 82.29 52 94.99 52C107.69 52 117.99 62.3 117.99 75Z" fill="black"/>
</svg>
